# xmcd
#
# Track frame offsets:
#	150
#	17208
#	34873
#	50413
#	66443
#	82819
#	100243
#	120900
#	138718
#	160241
#	177840
#	194871
#	212094
#
# Disc length: 3097 seconds
#
# Revision: 1
# Processed by: cddbd v1.5.1PL2 Copyright (c) Steve Scherf et al.
# Submitted via: audiograbber 1.83.01
#
DISCID=b80c170d
DTITLE=BSB - The Hits 1
DYEAR=1900
DGENRE=
TTITLE0=01
TTITLE1=2
TTITLE2=3
TTITLE3=As Long as You Love Me
TTITLE4=5
TTITLE5=6
TTITLE6=All I Have To Give
TTITLE7=8
TTITLE8=9
TTITLE9=10
TTITLE10=11
TTITLE11=12
TTITLE12=Drowning
EXTD=
EXTT0=
EXTT1=
EXTT2=
EXTT3=
EXTT4=
EXTT5=
EXTT6=
EXTT7=
EXTT8=
EXTT9=
EXTT10=
EXTT11=
EXTT12=
PLAYORDER=
